<svg width="52" height="52" viewBox="0 0 52 52" fill="none" xmlns="http://www.w3.org/2000/svg">
<path d="M22.4468 26.7547C22.8636 25.921 22.5258 24.9074 21.6921 24.4905C20.8585 24.0739 19.845 24.4117 19.4282 25.2454C18.8413 26.4192 17.5196 27.244 15.9062 27.4767C14.271 27.7126 12.787 27.2754 12.0057 26.4943C11.3467 25.8351 10.2783 25.8351 9.61925 26.4943C8.96025 27.1532 8.96025 28.2218 9.61925 28.8807C11.3693 30.6307 14.045 31.1552 16.3882 30.8171C18.753 30.4761 21.2284 29.1916 22.4468 26.7547ZM30.3078 24.4905C29.4742 24.9074 29.1364 25.921 29.5532 26.7547C30.7716 29.1916 33.247 30.4761 35.6118 30.8171C37.9549 31.1552 40.6306 30.6307 42.3807 28.8807C43.0397 28.2218 43.0397 27.1532 42.3807 26.4943C41.7218 25.8351 40.6532 25.8351 39.9943 26.4943C39.2131 27.2754 37.729 27.7126 36.0938 27.4767C34.4804 27.244 33.1587 26.4192 32.5718 25.2454C32.155 24.4117 31.1415 24.0739 30.3078 24.4905ZM33.1643 40.6807C29.2012 36.7467 22.7922 36.7603 18.8423 40.725C18.1845 41.3851 17.116 41.3871 16.4558 40.7292C15.7956 40.0714 15.7936 39.003 16.4515 38.3427C21.7151 33.0598 30.2576 33.0397 35.542 38.2857C36.2035 38.9421 36.2074 40.0106 35.5507 40.6721C34.8941 41.3335 33.8256 41.3374 33.1643 40.6807Z" fill="white"/>
<path d="M25.9981 0.6875C17.7232 0.6875 11.3407 3.47895 7.03827 8.15091C2.75681 12.8001 0.6875 19.145 0.6875 25.9981C0.6875 32.8513 2.75681 39.1961 7.03827 43.8453C11.3407 48.5173 17.7232 51.3088 25.9981 51.3088C34.2731 51.3088 40.6556 48.5173 44.9579 43.8453C49.2394 39.1961 51.3088 32.8513 51.3088 25.9981C51.3088 19.145 49.2394 12.8001 44.9579 8.15091C40.6556 3.47895 34.2731 0.6875 25.9981 0.6875ZM4.0625 25.9981C4.0625 19.8045 5.92879 14.3379 9.52092 10.4372C13.0921 6.55926 18.5212 4.0625 25.9981 4.0625C33.475 4.0625 38.9041 6.55926 42.4752 10.4372C46.0674 14.3379 47.9338 19.8045 47.9338 25.9981C47.9338 32.1916 46.0674 37.6584 42.4752 41.5591C38.9041 45.437 33.475 47.9338 25.9981 47.9338C18.5212 47.9338 13.0921 45.437 9.52092 41.5591C5.92879 37.6584 4.0625 32.1916 4.0625 25.9981Z" fill="white"/>
</svg>
