<svg width="200" height="197" viewBox="0 0 200 197" fill="none" xmlns="http://www.w3.org/2000/svg">
<path d="M8 0H200V197H8V0Z" fill="#313134"/>
<path d="M0.642029 197V51.5454H58.0284C69.0606 51.5454 78.4593 53.6524 86.2244 57.8665C93.9896 62.0331 99.9081 67.8333 103.98 75.267C108.099 82.6534 110.159 91.1761 110.159 100.835C110.159 110.494 108.076 119.017 103.909 126.403C99.7424 133.79 93.7055 139.543 85.7983 143.662C77.9384 147.781 68.4214 149.841 57.2471 149.841H20.6704V125.196H52.2756C58.1941 125.196 63.071 124.178 66.9062 122.142C70.7888 120.059 73.6771 117.194 75.571 113.548C77.5123 109.855 78.4829 105.617 78.4829 100.835C78.4829 96.0057 77.5123 91.7916 75.571 88.1932C73.6771 84.5473 70.7888 81.7301 66.9062 79.7415C63.0237 77.7055 58.0994 76.6875 52.1335 76.6875H31.3949V197H0.642029Z" fill="white"/>
</svg>
